<?xml version="1.0" encoding="UTF-8"?>
<svg id="_Слой_1" data-name="Слой 1" xmlns="http://www.w3.org/2000/svg" viewBox="0 0 283.97 64.93">
  <defs>
    <style>
      .cls-1 {
        fill: #745ba3;
      }
    </style>
  </defs>
  <g>
    <path class="cls-1" d="M11.18,7c6.1,0,11.03,4.47,11.03,10.57s-5.02,10.62-10.71,10.62c-2.67,0-5.25-.75-7.2-2.96h-.23v15.39H0V19.25C0,11.79,4.3,7,11.18,7Zm-.06,17.62c4.04,0,6.79-3.19,6.79-7.05s-2.7-7-6.79-7-6.91,3.14-6.91,6.97,2.85,7.08,6.91,7.08Z"/>
    <path class="cls-1" d="M25.98,17.59c0-6.1,5.11-10.6,11.12-10.6s11.12,4.5,11.12,10.6-5.11,10.6-11.12,10.6-11.12-4.5-11.12-10.6Zm11.12,7.03c4.06,0,6.82-3.14,6.82-7.03s-2.76-7.03-6.82-7.03-6.82,3.11-6.82,7.03,2.76,7.03,6.82,7.03Z"/>
    <path class="cls-1" d="M63.23,28.19c-6.39,0-11.23-4.47-11.23-10.6s4.73-10.6,11.09-10.6c4.88,0,9.43,2.64,10.6,7.66h-4.18c-1.02-2.7-3.45-4.09-6.3-4.09-4.3,0-6.91,3.19-6.91,7.08s2.7,6.97,7,6.97c2.79,0,5.31-1.28,6.3-4.21h4.21c-1.51,5.34-5.86,7.78-10.57,7.78Z"/>
    <path class="cls-1" d="M88.86,25.26l-6.68-13.96h-.12V27.75h-3.92V7.43h6.24l6.62,13.91h.12l6.62-13.91h6.24V27.75h-3.92V11.29h-.12l-6.68,13.96h-4.41Z"/>
    <path class="cls-1" d="M108.34,17.59c0-6.1,5.11-10.6,11.12-10.6s11.12,4.5,11.12,10.6-5.11,10.6-11.12,10.6-11.12-4.5-11.12-10.6Zm11.12,7.03c4.06,0,6.82-3.14,6.82-7.03s-2.76-7.03-6.82-7.03-6.82,3.11-6.82,7.03,2.76,7.03,6.82,7.03Z"/>
    <path class="cls-1" d="M132.64,27.93v-4.21h.09c.78,0,1.74-.35,2.32-1.02,.75-.84,1.13-2.35,1.54-4.56l.58-3.25c.67-3.74,2-7.55,7.63-7.55h7.93V27.75h-4.06V11.12h-3.16c-3.16,0-3.83,.87-4.59,5.2l-.52,3.05c-.46,2.79-1.16,5.2-2.61,6.73-1.1,1.16-2.64,1.83-4.7,1.83h-.44Z"/>
    <path class="cls-1" d="M157.22,17.59c0-6.1,5.11-10.6,11.12-10.6s11.12,4.5,11.12,10.6-5.11,10.6-11.12,10.6-11.12-4.5-11.12-10.6Zm11.12,7.03c4.06,0,6.82-3.14,6.82-7.03s-2.76-7.03-6.82-7.03-6.82,3.11-6.82,7.03,2.76,7.03,6.82,7.03Z"/>
    <path class="cls-1" d="M184.16,32.69h-3.92v-8.71h2.64c1.16-1.31,1.77-3.25,2.32-5.6l.87-3.77c.84-3.63,2.41-7.26,7.43-7.26h7.9V23.98h2.93v8.71h-3.92v-4.93h-16.26v4.93Zm13.24-8.62V11.06h-3.8c-2.47,0-3.31,1.97-3.8,4.06l-.9,3.92c-.49,2.18-1.25,3.98-2,4.73v.29h10.51Z"/>
    <path class="cls-1" d="M218.53,28.19c-6.47,0-11.18-4.47-11.18-10.6s4.73-10.6,11.03-10.6c4.88,0,10.74,3.19,10.74,10.92v.84h-17.71c.44,3.4,3.08,5.86,7.08,5.86,2.38,0,5.23-.87,6.01-2.93h4.18c-1.28,4.47-6.01,6.5-10.16,6.5ZM211.48,0h4.21V4.21h-4.21V0Zm13.41,15.65c-.64-3.08-3.02-5.14-6.56-5.14s-5.98,2.21-6.73,5.14h13.3Zm-4.27-15.65h4.21V4.21h-4.21V0Z"/>
    <path class="cls-1" d="M248.29,7.43V15.5h3.4l4.79-8.07h4.47l-5.95,9.7,6.44,10.62h-4.56l-5.14-8.56h-3.45v8.56h-3.83v-8.56h-3.45l-5.14,8.56h-4.56l6.44-10.62-5.95-9.7h4.47l4.79,8.07h3.4V7.43h3.83Z"/>
    <path class="cls-1" d="M264.28,18.61l-.06-11.18h4.06l.03,5.78h.12c1.71-2.09,3.89-3.11,6.5-3.11,4.99,0,9.03,3.72,9.03,8.91s-4.12,9.17-9.78,9.17-9.87-4.04-9.9-9.58Zm9.81,6.01c3.22,0,5.57-2.26,5.57-5.43s-2.35-5.49-5.57-5.49-5.54,2.32-5.54,5.49,2.35,5.43,5.54,5.43Z"/>
  </g>
  <g>
    <path class="cls-1" d="M90.67,52c0,4.29-3.15,7.38-7.5,7.38s-7.5-3.09-7.5-7.38,3.18-7.38,7.5-7.38,7.5,3.09,7.5,7.38Zm-12.72,0c0,3.18,2.22,5.25,5.22,5.25s5.22-2.07,5.22-5.25-2.22-5.25-5.22-5.25-5.22,2.07-5.22,5.25Z"/>
    <path class="cls-1" d="M103.78,45.07h2.16v13.86h-2.16v-6.33h-8.07v6.33h-2.16v-13.86h2.16v5.52h8.07v-5.52Z"/>
    <path class="cls-1" d="M108.82,50.26c0-3.33,.84-7.26,3.84-9,1.83-1.02,4.71-1.53,6.12-1.92,.93-.27,1.65-.81,1.71-1.53h2.13c0,1.92-.99,2.82-2.73,3.3-1.2,.33-4.38,.87-6.06,1.74-1.86,.99-2.82,3.15-3.06,5.91h.09c1.02-2.55,3.39-3.93,6.24-3.93,4.11,0,6.93,2.88,6.93,7.11s-2.91,7.44-7.56,7.44c-4.26,0-7.65-2.52-7.65-9.12Zm12.93,1.8c0-3.27-2.34-5.22-5.22-5.22s-5.25,1.95-5.25,5.19,2.37,5.22,5.25,5.22,5.22-1.95,5.22-5.19Z"/>
    <path class="cls-1" d="M140.98,52c0,4.29-3.15,7.38-7.5,7.38s-7.5-3.09-7.5-7.38,3.18-7.38,7.5-7.38,7.5,3.09,7.5,7.38Zm-12.72,0c0,3.18,2.22,5.25,5.22,5.25s5.22-2.07,5.22-5.25-2.22-5.25-5.22-5.25-5.22,2.07-5.22,5.25Z"/>
    <path class="cls-1" d="M143.86,64.93v-19.86h2.16v2.46h.06c.96-1.74,2.73-2.91,5.25-2.91,3.81,0,6.87,2.79,6.87,7.38s-3.06,7.38-6.87,7.38c-2.52,0-4.29-1.17-5.25-2.91h-.06v8.46h-2.16Zm12.06-12.93c0-3.06-1.98-5.25-5.01-5.25s-5.01,2.19-5.01,5.25,1.98,5.25,5.01,5.25,5.01-2.19,5.01-5.25Z"/>
    <path class="cls-1" d="M171.82,57.19h1.71v5.64h-1.92v-3.63h-11.1v3.63h-1.95v-5.64h1.77c.75-1.32,1.2-2.79,1.2-5.04v-7.08h10.29v12.12Zm-8.13-4.92c0,2.19-.42,3.66-1.05,4.92h7.02v-10.14h-5.97v5.22Z"/>
    <path class="cls-1" d="M175.96,58.93v-13.86h2.19v10.56h.06l7.92-10.56h2.19v13.86h-2.19v-10.56h-.06l-7.89,10.56h-2.22Z"/>
    <path class="cls-1" d="M202.39,45.07h2.16v13.86h-2.16v-6.33h-8.07v6.33h-2.16v-13.86h2.16v5.52h8.07v-5.52Z"/>
    <path class="cls-1" d="M217.27,45.07v2.04h-6.72v11.82h-2.16v-13.86h8.88Z"/>
  </g>
</svg>