<svg width="160" height="33" viewBox="0 0 160 33" fill="none" xmlns="http://www.w3.org/2000/svg">
<g clip-path="url(#clip0_59_440)">
<path d="M6.29926 3.55762C9.73624 3.55762 12.514 5.82945 12.514 8.92971C12.514 12.03 9.68553 14.3272 6.47956 14.3272C4.97517 14.3272 3.5215 13.946 2.42279 12.8228H2.2932V20.6446H0V9.78355C0 5.99208 2.42279 3.55762 6.29926 3.55762ZM6.26545 12.5128C8.54175 12.5128 10.0912 10.8915 10.0912 8.92971C10.0912 6.9679 8.56992 5.37203 6.26545 5.37203C3.96098 5.37203 2.37208 6.96791 2.37208 8.91446C2.37208 10.861 3.97789 12.5128 6.26545 12.5128Z" fill="white"/>
<path d="M14.6382 8.93995C14.6382 5.83969 17.5174 3.55261 20.9036 3.55261C24.2899 3.55261 27.1691 5.83969 27.1691 8.93995C27.1691 12.0402 24.2899 14.3273 20.9036 14.3273C17.5174 14.3273 14.6382 12.0402 14.6382 8.93995ZM20.9036 12.5129C23.1912 12.5129 24.7463 10.917 24.7463 8.93995C24.7463 6.9629 23.1912 5.36703 20.9036 5.36703C18.6161 5.36703 17.061 6.94765 17.061 8.93995C17.061 10.9323 18.6161 12.5129 20.9036 12.5129Z" fill="white"/>
<path d="M35.6263 14.3273C32.0259 14.3273 29.2989 12.0555 29.2989 8.93995C29.2989 5.82444 31.964 3.55261 35.5474 3.55261C38.297 3.55261 40.8607 4.89436 41.5199 7.44573H39.1647C38.59 6.07348 37.2209 5.36703 35.615 5.36703C33.1923 5.36703 31.7217 6.98831 31.7217 8.96536C31.7217 10.9424 33.243 12.5078 35.6658 12.5078C37.2378 12.5078 38.6576 11.8572 39.2154 10.3681H41.5875C40.7367 13.0821 38.2858 14.3222 35.632 14.3222L35.6263 14.3273Z" fill="white"/>
<path d="M50.0672 12.8382L46.3035 5.74313H46.2358V14.1037H44.0272V3.77625H47.543L51.273 10.8459H51.3406L55.0706 3.77625H58.5864V14.1037H56.3778V5.73805H56.3101L52.5464 12.8331H50.0616L50.0672 12.8382Z" fill="white"/>
<path d="M61.0431 8.93995C61.0431 5.83969 63.9223 3.55261 67.3085 3.55261C70.6948 3.55261 73.574 5.83969 73.574 8.93995C73.574 12.0402 70.6948 14.3273 67.3085 14.3273C63.9223 14.3273 61.0431 12.0402 61.0431 8.93995ZM67.3085 12.5129C69.5961 12.5129 71.1512 10.917 71.1512 8.93995C71.1512 6.9629 69.5961 5.36703 67.3085 5.36703C65.021 5.36703 63.4659 6.94765 63.4659 8.93995C63.4659 10.9323 65.021 12.5129 67.3085 12.5129Z" fill="white"/>
<path d="M74.7346 14.1951V12.0554H74.7853C75.2248 12.0554 75.7657 11.8776 76.0925 11.537C76.5151 11.1101 76.7292 10.3427 76.9602 9.21946L77.287 7.56768C77.6645 5.66686 78.4139 3.73047 81.586 3.73047H86.0541V14.1036H83.7666V5.65161H81.9861C80.2056 5.65161 79.8281 6.09378 79.3999 8.29446L79.1069 9.84459C78.8477 11.2626 78.4533 12.4874 77.6363 13.265C77.0165 13.8546 76.1489 14.1951 74.9882 14.1951H74.7403H74.7346Z" fill="white"/>
<path d="M88.584 8.93995C88.584 5.83969 91.4632 3.55261 94.8494 3.55261C98.2357 3.55261 101.115 5.83969 101.115 8.93995C101.115 12.0402 98.2357 14.3273 94.8494 14.3273C91.4632 14.3273 88.584 12.0402 88.584 8.93995ZM94.8494 12.5129C97.137 12.5129 98.6921 10.917 98.6921 8.93995C98.6921 6.9629 97.137 5.36703 94.8494 5.36703C92.5619 5.36703 91.0068 6.94765 91.0068 8.93995C91.0068 10.9323 92.5619 12.5129 94.8494 12.5129Z" fill="white"/>
<path d="M103.763 16.6144H101.554V12.1876H103.042C103.695 11.5218 104.039 10.5358 104.349 9.34148L104.839 7.42542C105.313 5.58051 106.197 3.7356 109.026 3.7356H113.477V12.1876H115.128V16.6144H112.919V14.1088H103.757V16.6144H103.763ZM111.223 12.2334V5.62116H109.082C107.69 5.62116 107.217 6.6224 106.941 7.68462L106.434 9.67692C106.158 10.7849 105.729 11.6997 105.307 12.0809V12.2283H111.229L111.223 12.2334Z" fill="white"/>
<path d="M123.128 14.3273C119.483 14.3273 116.829 12.0554 116.829 8.93994C116.829 5.82443 119.494 3.55259 123.044 3.55259C125.794 3.55259 129.095 5.17388 129.095 9.10257V9.52949H119.117C119.365 11.2575 120.852 12.5078 123.106 12.5078C124.447 12.5078 126.053 12.0656 126.492 11.0186H128.847C128.126 13.2905 125.461 14.3222 123.123 14.3222L123.128 14.3273ZM119.156 0H121.528V2.13969H119.156V0ZM126.712 7.95395C126.351 6.38857 125.01 5.3416 123.016 5.3416C121.021 5.3416 119.646 6.46481 119.224 7.95395H126.718H126.712ZM124.306 0H126.678V2.13969H124.306V0Z" fill="white"/>
<path d="M139.896 3.77625V7.87774H141.812L144.511 3.77625H147.03L143.677 8.70617L147.306 14.1037H144.736L141.84 9.75314H139.896V14.1037H137.738V9.75314H135.795L132.899 14.1037H130.329L133.958 8.70617L130.605 3.77625H133.124L135.823 7.87774H137.738V3.77625H139.896Z" fill="white"/>
<path d="M148.906 9.45836L148.872 3.77625H151.16L151.177 6.71387H151.244C152.208 5.65165 153.436 5.13325 154.907 5.13325C157.718 5.13325 159.994 7.0239 159.994 9.66166C159.994 12.2994 157.673 14.3222 154.484 14.3222C151.295 14.3222 148.923 12.2689 148.906 9.45328V9.45836ZM154.433 12.5129C156.247 12.5129 157.572 11.3643 157.572 9.75314C157.572 8.14202 156.247 6.96291 154.433 6.96291C152.619 6.96291 151.312 8.14202 151.312 9.75314C151.312 11.3643 152.636 12.5129 154.433 12.5129Z" fill="white"/>
<path d="M51.0871 26.4284C51.0871 28.6088 49.3123 30.1792 46.8613 30.1792C44.4103 30.1792 42.6355 28.6088 42.6355 26.4284C42.6355 24.2481 44.4272 22.6776 46.8613 22.6776C49.2954 22.6776 51.0871 24.2481 51.0871 26.4284ZM43.9201 26.4284C43.9201 28.0446 45.171 29.0967 46.8613 29.0967C48.5516 29.0967 49.8025 28.0446 49.8025 26.4284C49.8025 24.8122 48.5516 23.7602 46.8613 23.7602C45.171 23.7602 43.9201 24.8122 43.9201 26.4284Z" fill="white"/>
<path d="M58.4738 22.9064H59.6908V29.9506H58.4738V26.7334H53.9268V29.9506H52.7098V22.9064H53.9268V25.7119H58.4738V22.9064Z" fill="white"/>
<path d="M61.3135 25.5441C61.3135 23.8517 61.7868 21.8543 63.4771 20.97C64.5082 20.4516 66.1309 20.1924 66.9254 19.9942C67.4494 19.8569 67.8551 19.5825 67.8889 19.2166H69.089C69.089 20.1924 68.5312 20.6498 67.5508 20.8937C66.8747 21.0615 65.083 21.3359 64.1364 21.7781C63.0884 22.2812 62.5475 23.379 62.4122 24.7818H62.463C63.0377 23.4858 64.373 22.7844 65.9788 22.7844C68.2946 22.7844 69.8835 24.2481 69.8835 26.398C69.8835 28.5478 68.2438 30.1793 65.6239 30.1793C63.2236 30.1793 61.3135 28.8985 61.3135 25.5441ZM68.5988 26.459C68.5988 24.797 67.2804 23.806 65.6577 23.806C64.035 23.806 62.6996 24.797 62.6996 26.4437C62.6996 28.0904 64.035 29.0967 65.6577 29.0967C67.2804 29.0967 68.5988 28.1057 68.5988 26.459Z" fill="white"/>
<path d="M79.4338 26.4284C79.4338 28.6088 77.6589 30.1792 75.208 30.1792C72.757 30.1792 70.9822 28.6088 70.9822 26.4284C70.9822 24.2481 72.7739 22.6776 75.208 22.6776C77.642 22.6776 79.4338 24.2481 79.4338 26.4284ZM72.2668 26.4284C72.2668 28.0446 73.5177 29.0967 75.208 29.0967C76.8983 29.0967 78.1491 28.0446 78.1491 26.4284C78.1491 24.8122 76.8983 23.7602 75.208 23.7602C73.5177 23.7602 72.2668 24.8122 72.2668 26.4284Z" fill="white"/>
<path d="M81.0565 33V22.9063H82.2735V24.1566H82.3073C82.8482 23.2723 83.8455 22.6776 85.2654 22.6776C87.4121 22.6776 89.1362 24.0956 89.1362 26.4284C89.1362 28.7612 87.4121 30.1792 85.2654 30.1792C83.8455 30.1792 82.8482 29.5846 82.3073 28.7003H82.2735V33H81.0565ZM87.8515 26.4284C87.8515 24.8732 86.7359 23.7602 85.0287 23.7602C83.3215 23.7602 82.2059 24.8732 82.2059 26.4284C82.2059 27.9836 83.3215 29.0967 85.0287 29.0967C86.7359 29.0967 87.8515 27.9836 87.8515 26.4284Z" fill="white"/>
<path d="M96.8103 29.0662H97.7737V31.9327H96.6919V30.0878H90.4378V31.9327H89.3391V29.0662H90.3363C90.7589 28.3954 91.0125 27.6482 91.0125 26.5047V22.9064H96.8103V29.0662ZM92.2295 26.5657C92.2295 27.6787 91.9929 28.4259 91.6379 29.0662H95.5932V23.9127H92.2295V26.5657Z" fill="white"/>
<path d="M99.1429 29.9506V22.9064H100.377V28.2734H100.411L104.873 22.9064H106.107V29.9506H104.873V24.5836H104.839L100.394 29.9506H99.1429Z" fill="white"/>
<path d="M114.035 22.9064H115.252V29.9506H114.035V26.7334H109.488V29.9506H108.271V22.9064H109.488V25.7119H114.035V22.9064Z" fill="white"/>
<path d="M122.419 22.9064V23.9432H118.632V29.9506H117.415V22.9064H122.419Z" fill="white"/>
</g>
<defs>
<clipPath id="clip0_59_440">
<rect width="160" height="33" fill="white"/>
</clipPath>
</defs>
</svg>
