<svg width="24" height="24" viewBox="0 0 24 24" fill="none" xmlns="http://www.w3.org/2000/svg">
<path d="M12 0.0798035C5.376 0.0798035 0 5.43793 0 12.0399C0 18.6419 5.376 24 12 24C18.624 24 24 18.6419 24 12.0399C24 5.43793 18.624 0.0798035 12 0.0798035ZM17.568 8.21267C17.388 10.1024 16.608 14.695 16.212 16.812C16.044 17.709 15.708 18.008 15.396 18.0439C14.7 18.1037 14.172 17.5894 13.5 17.1469C12.444 16.4532 11.844 16.0226 10.824 15.3528C9.636 14.5754 10.404 14.1449 11.088 13.4512C11.268 13.2718 14.34 10.4851 14.4 10.2339C14.4083 10.1959 14.4072 10.1564 14.3968 10.1189C14.3863 10.0814 14.3668 10.0469 14.34 10.0186C14.268 9.95884 14.172 9.98276 14.088 9.99472C13.98 10.0186 12.3 11.1309 9.024 13.3316C8.544 13.6545 8.112 13.822 7.728 13.81C7.296 13.798 6.48 13.5708 5.868 13.3675C5.112 13.1283 4.524 12.9967 4.572 12.5781C4.596 12.3628 4.896 12.1475 5.46 11.9203C8.964 10.4014 11.292 9.39672 12.456 8.91831C15.792 7.53094 16.476 7.29174 16.932 7.29174C17.028 7.29174 17.256 7.31566 17.4 7.43526C17.52 7.53094 17.556 7.6625 17.568 7.75818C17.556 7.82994 17.58 8.04523 17.568 8.21267V8.21267Z" fill="white"/>
</svg>
