<svg width="24" height="24" viewBox="0 0 24 24" fill="none" xmlns="http://www.w3.org/2000/svg">
<path d="M12 0C5.3725 0 0 5.35463 0 11.9601C0 18.5656 5.3725 23.9202 12 23.9202C18.6275 23.9202 24 18.5656 24 11.9601C24 5.35463 18.6275 0 12 0ZM16.615 13.4937C16.615 13.4937 17.6763 14.5377 17.9375 15.0224C17.945 15.0323 17.9488 15.0423 17.9513 15.0473C18.0575 15.2254 18.0825 15.3637 18.03 15.4671C17.9425 15.6391 17.6425 15.7238 17.54 15.7313H15.665C15.535 15.7313 15.2625 15.6976 14.9325 15.4709C14.6788 15.294 14.4288 15.0037 14.185 14.7209C13.8213 14.2998 13.5063 13.936 13.1888 13.936C13.1484 13.9359 13.1083 13.9422 13.07 13.9547C12.83 14.0319 12.5225 14.3733 12.5225 15.2828C12.5225 15.5668 12.2975 15.73 12.1388 15.73H11.28C10.9875 15.73 9.46375 15.6279 8.11375 14.2088C6.46125 12.4709 4.97375 8.98502 4.96125 8.95263C4.8675 8.72713 5.06125 8.60628 5.2725 8.60628H7.16625C7.41875 8.60628 7.50125 8.75952 7.55875 8.89532C7.62625 9.05354 7.87375 9.68269 8.28 10.3903C8.93875 11.544 9.3425 12.0124 9.66625 12.0124C9.72696 12.0117 9.78658 11.9963 9.84 11.9676C10.2625 11.7334 10.1837 10.2321 10.165 9.92065C10.165 9.86209 10.1637 9.24914 9.9475 8.95512C9.7925 8.74208 9.52875 8.6611 9.36875 8.6312C9.43351 8.54214 9.51883 8.46992 9.6175 8.42065C9.9075 8.27614 10.43 8.25496 10.9488 8.25496H11.2375C11.8 8.26243 11.945 8.29856 12.1488 8.34964C12.5613 8.44806 12.57 8.71343 12.5338 9.62165C12.5225 9.87954 12.5113 10.1711 12.5113 10.5149C12.5113 10.5897 12.5075 10.6694 12.5075 10.7541C12.495 11.2163 12.48 11.7408 12.8075 11.9564C12.8502 11.9831 12.8996 11.9973 12.95 11.9975C13.0638 11.9975 13.4063 11.9975 14.3338 10.4115C14.6198 9.90104 14.8684 9.37058 15.0775 8.82431C15.0963 8.79191 15.1513 8.69225 15.2163 8.65363C15.2642 8.62925 15.3174 8.61685 15.3712 8.6175H17.5975C17.84 8.6175 18.0063 8.65363 18.0375 8.74706C18.0925 8.89532 18.0275 9.34756 17.0113 10.7192L16.5575 11.316C15.6363 12.5195 15.6363 12.5805 16.615 13.4937V13.4937Z" fill="white"/>
</svg>
